# AST/ASF file generated using VICON BodyLanguage
# -----------------------------------------------
:version 1.10
:name VICON
:units
  mass 1.0
  length 0.45
  angle deg
:documentation
   .ast/.asf automatically generated from VICON data using
   VICON BodyBuilder and BodyLanguage model FoxedUp or BRILLIANT.MOD
:root
   order TX TY TZ RX RY RZ
   axis XYZ
   position 0 0 0  
   orientation 0 0 0 
:bonedata
  begin
     id 1 
     name lhipjoint
     direction 0.623415 -0.642378 0.445763 
     length 2.49859 
     axis 0 0 0  XYZ
  end
  begin
     id 2 
     name lfemur
     direction 0.34202 -0.939693 0  
     length 6.69689  
     axis 0 0 20  XYZ
    dof rx ry rz
    limits (-160.0 20.0)
           (-70.0 70.0)
           (-60.0 70.0)
  end
  begin
     id 3 
     name ltibia
     direction 0.34202 -0.939693 0   
     length 7.37574   
     axis 0 0 20   XYZ
    dof rx
    limits (-10.0 170.0)
  end
  begin
     id 4 
     name lfoot
     direction 0.084323 -0.231675 0.969132   
     length 2.09111   
     axis -90 7.62852e-016 20   XYZ
    dof rx rz
    limits (-45.0 90.0)
           (-70.0 20.0)
  end
  begin
     id 5 
     name ltoes
     direction 1.5357e-011 -4.21957e-011 1   
     length 1.04989   
     axis -90 7.62852e-016 20   XYZ
    dof rx
    limits (-90.0 20.0)
  end
  begin
     id 6 
     name rhipjoint
     direction -0.605402 -0.653903 0.45376   
     length 2.45455  
     axis 0 0 0  XYZ 
  end
  begin
     id 7 
     name rfemur
     direction -0.34202 -0.939693 0   
     length 6.64523   
     axis 0 0 -20   XYZ
    dof rx ry rz
    limits (-160.0 20.0)
           (-70.0 70.0)
           (-70.0 60.0)
  end
  begin
     id 8 
     name rtibia
     direction -0.34202 -0.939693 0   
     length 7.3339   
     axis 0 0 -20   XYZ
    dof rx
    limits (-10.0 170.0)
 end
 begin
     id 9 
     name rfoot
     direction -0.120854 -0.332043 0.93549   
     length 2.23135  
     axis -90 -7.62852e-016 -20   XYZ
    dof rx rz
    limits (-45.0 90.0)
           (-20.0 70.0)
  end
  begin
     id 10 
     name rtoes
     direction -1.53563e-011 -4.21914e-011 1   
     length 1.10614   
     axis -90 -7.62852e-016 -20   XYZ
    dof rx
    limits (-90.0 20.0)
  end
  begin
     id 11 
     name lowerback
     direction 0.0319682 0.998615 -0.0417941   
     length 2.02718   
     axis 0 0 0   XYZ
    dof rx ry rz
    limits (-20.0 45.0)
           (-30.0 30.0)
           (-30.0 30.0)
  end
  begin
     id 12 
     name upperback
     direction 7.63181e-005 0.995808 0.0914691   
     length 1.97539   
     axis 0 0 0   XYZ
    dof rx ry rz
    limits (-20.0 45.0)
           (-30.0 30.0)
           (-30.0 30.0)
  end
  begin
     id 13 
     name thorax
     direction -0.016423 0.993627 0.111514   
     length 2.00349   
     axis 0 0 0   XYZ
    dof rx ry rz
    limits (-20.0 45.0)
           (-30.0 30.0)
           (-30.0 30.0)
  end
  begin
     id 14 
     name lowerneck
     direction -0.174763 0.981668 -0.0760716   
     length 1.71436   
     axis 0 0 0   XYZ
    dof rx ry rz
    limits (-20.0 45.0)
           (-30.0 30.0)
           (-30.0 30.0)
  end
  begin
     id 15 
     name upperneck
     direction 0.345458 0.934587 -0.0848868   
     length 1.72805   
     axis 0 0 0   XYZ
    dof rx ry rz
    limits (-20.0 45.0)
           (-30.0 30.0)
           (-30.0 30.0)
  end
  begin
     id 16
     name head
     direction 0.13001 0.989848 -0.0574291  
     length 1.767  
     axis 0 0 0   XYZ
    dof rx ry rz
    limits (-20.0 45.0)
           (-30.0 30.0)
           (-30.0 30.0)
  end
  begin
     id 17 
     name lclavicle
     direction 0.952951 0.290122 0.0878234  
     length 3.54654  
     axis 0 0 0   XYZ
    dof ry rz
    limits (-20.0 10.0)
           (0.0 20.0)
  end
  begin
     id 18 
     name lhumerus
     direction 1 -4.48957e-011 -4.56525e-028   
     length 5.19807   
     axis 180 -30 -90   XYZ
    dof rx ry rz
    limits (-60.0 90.0)
           (-90.0 90.0)
           (-90.0 90.0)
  end
  begin
     id 19
     name lradius
     direction 1 -4.48979e-011 -2.0317e-027   
     length 3.0937   
     axis 180 -30 -90   XYZ
    dof rx
    limits (-10.0 170.0)
  end
  begin
     id 20
     name lwrist
     direction 1 -4.48953e-011 -3.05809e-027   
     length 1.54685   
     axis 8.48514e-016 90 90   XYZ
    dof ry
    limits (-180.0 0.0)
 end
  begin
     id 21 
     name lhand
     direction 1 -4.48952e-011 -6.11639e-027   
     length 0.672632   
     axis 3.9013e-015 90 90   XYZ
    dof rx rz
    limits (-90.0 90.0)
           (-45.0 45.0)
  end
  begin
     id 22 
     name lfingers
     direction 1 -4.48925e-011 -1.22426e-026   
     length 0.542293   
     axis 7.80276e-015 90 90   XYZ
    dof rx
    limits (0.0 90.0)
  end
  begin
     id 23
     name lthumb
     direction 0.707107 -6.3486e-011 0.707107   
     length 0.778628   
     axis -90 45 5.37419e-014   XYZ
    dof rx rz
    limits (-45.0 45.0)
           (-45.0 45.0)
  end
  begin
     id 24 
     name rclavicle
     direction -0.960732 0.273675 -0.0457849   
     length 3.52079  
     axis 0 0 0   XYZ 
    dof ry rz
    limits (-10.0 20.0)
           (-20.0 0.0)
  end
  begin
     id 25 
     name rhumerus
     direction -1 -4.48976e-011 -1.63613e-027  
     length 5.45222   
     axis 180 30 90   XYZ
    dof rx ry rz
    limits (-90.0 60.0)
           (-90.0 90.0)
           (-90.0 90.0)
  end
  begin
     id 26 
     name rradius
     direction -1 -4.48957e-011 -7.00033e-028   
     length 3.01284   
     axis 180 30 90   XYZ
    dof rx
    limits (-10.0 170.0)
  end
  begin
     id 27 
     name rwrist
     direction -1 -4.48983e-011 -3.05543e-027   
     length 1.50642   
     axis 8.48514e-016 -90 -90   XYZ
    dof ry
    limits (-180.0 0.0)
  end
  begin
     id 28
     name rhand
     direction -1 -4.48984e-011 -6.11072e-027   
     length 0.622296   
     axis 3.9013e-015 -90 -90   XYZ
    dof rx rz
    limits (-90.0 90.0)
           (-45.0 45.0)
  end
  begin
     id 29
     name rfingers
     direction -1 -4.48865e-011 -1.22637e-026   
     length 0.501711   
     axis 7.80276e-015 -90 -90   XYZ
    dof rx
    limits (0.0 90.0)
  end
  begin
     id 30
     name rthumb
     direction -0.707107 -6.34932e-011 0.707107   
     length 0.72036   
     axis -90 -45 -5.37419e-014   XYZ
    dof rx rz
    limits (-45.0 45.0)
           (-45.0 45.0)
  end
:hierarchy
  begin
    root lhipjoint rhipjoint lowerback
    lhipjoint lfemur
    lfemur ltibia
    ltibia lfoot
    lfoot ltoes
    rhipjoint rfemur
    rfemur rtibia
    rtibia rfoot
    rfoot rtoes
    lowerback upperback
    upperback thorax
    thorax lowerneck lclavicle rclavicle
    lowerneck upperneck
    upperneck head
    lclavicle lhumerus
    lhumerus lradius
    lradius lwrist
    lwrist lhand lthumb
    lhand lfingers
    rclavicle rhumerus
    rhumerus rradius
    rradius rwrist
    rwrist rhand rthumb
    rhand rfingers
  end

#!OML:ASF H:\Not Pregnant\Project 1\Capture day 1\Session 1\non-pregnant.ASF
:FULLY-SPECIFIED
:DEGREES
188
root -5.7697 16.3557 35.0507 146.696 -83.6755 -133.222
lowerback -13.4347 2.52953 3.84661
upperback -6.43712 2.5709 -0.431549
thorax 0.945743 1.06454 -2.25497
lowerneck 16.2604 -8.80842 -30.1401
upperneck -4.63191 -19.0274 41.9958
head 3.90216 -11.9679 20.9002
rclavicle -6.95746e-016 -2.06736e-014
rhumerus 1.10291 -13.3613 -61.893
rradius 104.276
rwrist 14.7221
rhand -50.7604 20.4987
rfingers 7.12502
rthumb -23.3188 -8.10904
lclavicle -6.95746e-016 -2.06736e-014
lhumerus -42.1616 -7.07358 88.3958
lradius 33.455
lwrist 47.6248
lhand 15.6244 -6.43116
lfingers 7.12502
lthumb 40.4391 18.6609
rfemur 0 0 0
rtibia 0
rfoot 0 0
rtoes 0
lfemur -16.9143 6.18122 -16.8633
ltibia 15.8169
lfoot -13.5786 -6.48058
ltoes -16.5251
189
root -5.77166 16.356 35.0513 147.036 -83.668 -133.545
lowerback -13.4733 2.51105 3.84578
upperback -6.43738 2.54371 -0.424289
thorax 0.963927 1.05096 -2.2497
lowerneck 16.2296 -8.78917 -30.16
upperneck -4.55267 -18.9991 41.9193
head 3.90527 -11.9411 20.8628
rclavicle -8.94531e-016 4.37326e-015
rhumerus 0.366857 -12.8363 -62.2998
rradius 104.374
rwrist 13.0749
rhand -50.4442 20.8987
rfingers 7.12502
rthumb -23.0154 -7.74716
lclavicle -8.94531e-016 4.37326e-015
lhumerus -42.2347 -6.91837 88.3385
lradius 33.572
lwrist 47.9116
lhand 15.6834 -6.30088
lfingers 7.12502
lthumb 40.4945 18.7741
rfemur 0 0 0
rtibia 0
rfoot 0 0
rtoes 0
lfemur -16.8986 6.20416 -16.8931
ltibia 15.7733
lfoot -13.5654 -6.483
ltoes -16.5097
190
root -5.77362 16.3563 35.0516 147.391 -83.654 -133.883
lowerback -13.5106 2.49382 3.84409
upperback -6.44016 2.51816 -0.415143
thorax 0.978781 1.03806 -2.24185
lowerneck 16.1982 -8.76802 -30.2104
upperneck -4.45823 -18.9817 41.8513
head 3.92279 -11.9207 20.836
rclavicle 4.50744e-014 3.69739e-014
rhumerus -0.4371 -12.4594 -62.7156
rradius 104.23
rwrist 13.1333
rhand -50.2931 21.5293
rfingers 7.12502
rthumb -22.8704 -7.13455
lclavicle 4.50744e-014 3.69739e-014
lhumerus -42.3113 -6.78187 88.3027
lradius 33.6507
lwrist 48.0768
lhand 15.6693 -6.24354
lfingers 7.12502
lthumb 40.4812 18.8355
rfemur 0 0 0
rtibia 0
rfoot 0 0
rtoes 0
lfemur -16.8826 6.22784 -16.9178
ltibia 15.7312
lfoot -13.5519 -6.47906
ltoes -16.4864
191
root -5.77556 16.3567 35.0515 147.758 -83.6347 -134.234
lowerback -13.5456 2.48018 3.84614
upperback -6.44511 2.497 -0.408705
thorax 0.990672 1.02712 -2.23842
lowerneck 16.168 -8.7476 -30.2795
upperneck -4.3535 -18.9751 41.7905
head 3.95126 -11.9068 20.816
rclavicle 2.82771e-014 1.94809e-014
rhumerus -1.31254 -12.2484 -63.1353
rradius 103.811
rwrist 14.8883
rhand -50.3338 22.9864
rfingers 7.12502
rthumb -22.9094 -5.67262
lclavicle 2.82771e-014 1.94809e-014
lhumerus -42.3866 -6.66974 88.2829
lradius 33.6917
lwrist 48.1532
lhand 15.6092 -6.23728
lfingers 7.12502
lthumb 40.4248 18.8592
rfemur 0 0 0
rtibia 0
rfoot 0 0
rtoes 0
lfemur -16.8657 6.25281 -16.9388
ltibia 15.6905
lfoot -13.5409 -6.46786
ltoes -16.4821
192
root -5.77757 16.357 35.0511 148.113 -83.6142 -134.576
lowerback -13.5769 2.46981 3.85064
upperback -6.45199 2.48013 -0.406629
thorax 0.999111 1.01811 -2.24045
lowerneck 16.1369 -8.73155 -30.3506
upperneck -4.2406 -18.9783 41.729
head 3.98642 -11.8978 20.7936
rclavicle 1.64991e-014 8.34896e-015
rhumerus -2.266 -12.1381 -63.5217
rradius 103.181
rwrist 18.0906
rhand -50.6752 24.9344
rfingers 7.12502
rthumb -23.237 -3.68365
lclavicle 1.64991e-014 8.34896e-015
lhumerus -42.4577 -6.58021 88.2741
lradius 33.7059
lwrist 48.2376
lhand 15.5202 -6.22074
lfingers 7.12502
lthumb 40.341 18.9015
rfemur 0 0 0
rtibia 0
rfoot 0 0
rtoes 0
lfemur -16.847 6.28023 -16.9577
ltibia 15.6528
lfoot -13.5335 -6.45682
ltoes -16.4872
193
root -5.77946 16.3573 35.0505 148.464 -83.5923 -134.915
lowerback -13.6003 2.45644 3.84673
upperback -6.46549 2.46024 -0.396746
thorax 0.99554 1.0074 -2.23042
lowerneck 16.106 -8.71241 -30.4366
upperneck -4.11438 -18.9836 41.6641
head 4.02727 -11.8895 20.7729
rclavicle 1.19271e-015 -5.56597e-015
rhumerus -3.29551 -12.0839 -63.8609
rradius 102.406
rwrist 22.4053
rhand -51.2426 27.6052
rfingers 7.12502
rthumb -23.7813 -0.943083
lclavicle 1.19271e-015 -5.56597e-015
lhumerus -42.5314 -6.48878 88.2818
lradius 33.6887
lwrist 48.2896
lhand 15.416 -6.20661
lfingers 7.12502
lthumb 40.2431 18.9456
rfemur 0 0 0
rtibia 0
rfoot 0 0
rtoes 0
lfemur -16.8275 6.29424 -16.9728
ltibia 15.6169
lfoot -13.5267 -6.43062
ltoes -16.4988
194
root -5.78123 16.3575 35.0499 148.792 -83.5708 -135.231
lowerback -13.6179 2.44784 3.83651
upperback -6.48043 2.4477 -0.385773
thorax 0.987579 1.00043 -2.21483
lowerneck 16.0782 -8.70453 -30.506
upperneck -3.99789 -18.9972 41.5868
head 4.0643 -11.8842 20.7377
rclavicle -1.44119e-015 5.96354e-015
rhumerus -4.40373 -12.0696 -64.1396
rradius 101.583
rwrist 27.4765
rhand -51.9766 30.6807
rfingers 7.12502
rthumb -24.485 2.22585
lclavicle -1.44119e-015 5.96354e-015
lhumerus -42.5929 -6.43115 88.3206
lradius 33.6325
lwrist 48.2265
lhand 15.2457 -6.2347
lfingers 7.12502
lthumb 40.0829 18.9663
rfemur 0 0 0
rtibia 0
rfoot 0 0
rtoes 0
lfemur -16.8085 6.30673 -16.9858
ltibia 15.5826
lfoot -13.5214 -6.40286
ltoes -16.5264
195
root -5.78291 16.3576 35.0491 149.133 -83.5539 -135.561
lowerback -13.632 2.43726 3.81162
upperback -6.49462 2.43443 -0.367731
thorax 0.977682 0.993496 -2.18381
lowerneck 16.0413 -8.70428 -30.5719
upperneck -3.88867 -19.0135 41.4981
head 4.09985 -11.8778 20.6918
rclavicle -4.67144e-015 -1.98785e-015
rhumerus -5.57673 -12.0511 -64.3609
rradius 100.785
rwrist 32.9947
rhand -52.7746 33.819
rfingers 7.12502
rthumb -25.2498 5.46972
lclavicle -4.67144e-015 -1.98785e-015
lhumerus -42.6388 -6.38982 88.3929
lradius 33.5299
lwrist 47.9696
lhand 14.9999 -6.34648
lfingers 7.12502
lthumb 39.8515 18.9242
rfemur 0 0 0
rtibia 0
rfoot 0 0
rtoes 0
lfemur -16.7914 6.32094 -17.0034
ltibia 15.5493
lfoot -13.5156 -6.38171
ltoes -16.5377
196
root -5.78446 16.3577 35.0482 149.49 -83.5366 -135.907
lowerback -13.644 2.42341 3.77807
upperback -6.50431 2.41794 -0.339751
thorax 0.970498 0.985497 -2.13802
lowerneck 15.9879 -8.71035 -30.6431
upperneck -3.79075 -19.0286 41.3996
head 4.13416 -11.8678 20.6384
rclavicle -2.15184e-014 -1.55052e-014
rhumerus -6.80165 -11.9807 -64.5461
rradius 100.068
rwrist 38.7174
rhand -53.5675 36.338
rfingers 7.12502
rthumb -26.0093 8.09808
lclavicle -2.15184e-014 -1.55052e-014
lhumerus -42.6611 -6.34072 88.4883
lradius 33.3966
lwrist 47.6211
lhand 14.6943 -6.49429
lfingers 7.12502
lthumb 39.5638 18.8619
rfemur 0 0 0
rtibia 0
rfoot 0 0
rtoes 0
lfemur -16.777 6.33662 -17.0223
ltibia 15.5188
lfoot -13.5098 -6.35981
ltoes -16.5609
197
root -5.78602 16.3577 35.0472 149.839 -83.5209 -136.245
lowerback -13.6585 2.41376 3.74942
upperback -6.50938 2.40665 -0.316359
thorax 0.970247 0.980264 -2.09884
lowerneck 15.9389 -8.72134 -30.7063
upperneck -3.71791 -19.0428 41.3036
head 4.15997 -11.858 20.5842
rclavicle -3.8266e-015 -5.1684e-015
rhumerus -8.09593 -11.8295 -64.7127
rradius 99.4605
rwrist 44.4324
rhand -54.2994 38.0192
rfingers 7.12502
rthumb -26.7098 9.88423
lclavicle -3.8266e-015 -5.1684e-015
lhumerus -42.6602 -6.31289 88.5893
lradius 33.2484
lwrist 47.2689
lhand 14.3697 -6.63947
lfingers 7.12502
lthumb 39.258 18.8062
rfemur 0 0 0
rtibia 0
rfoot 0 0
rtoes 0
lfemur -16.7651 6.35397 -17.0416
ltibia 15.4933
lfoot -13.5043 -6.34275
ltoes -16.5724
198
root -5.78763 16.3577 35.0461 150.169 -83.5032 -136.565
lowerback -13.6754 2.41184 3.73492
upperback -6.5102 2.40422 -0.302237
thorax 0.97717 0.979368 -2.07584
lowerneck 15.9025 -8.73352 -30.7619
upperneck -3.67457 -19.0543 41.2215
head 4.17599 -11.8497 20.5381
rclavicle 2.19657e-014 2.94201e-014
rhumerus -9.46138 -11.5516 -64.8882
rradius 98.977
rwrist 49.8951
rhand -54.9038 38.7217
rfingers 7.12502
rthumb -27.2881 10.6763
lclavicle 2.19657e-014 2.94201e-014
lhumerus -42.6387 -6.31106 88.6868
lradius 33.0998
lwrist 46.9474
lhand 14.036 -6.75551
lfingers 7.12502
lthumb 38.9435 18.7807
rfemur 0 0 0
rtibia 0
rfoot 0 0
rtoes 0
lfemur -16.7551 6.37027 -17.0572
ltibia 15.4752
lfoot -13.5012 -6.32225
ltoes -16.5888
199
root -5.78928 16.3576 35.0448 150.428 -83.4789 -136.813
lowerback -13.693 2.42314 3.74838
upperback -6.50975 2.41633 -0.303797
thorax 0.988316 0.985142 -2.0827
lowerneck 15.889 -8.74513 -30.8023
upperneck -3.6626 -19.0639 41.1614
head 4.18043 -11.8453 20.5046
rclavicle -1.61016e-014 1.63003e-014
rhumerus -10.9017 -11.1083 -65.0997
rradius 98.5914
rwrist 54.8647
rhand -55.3361 38.8884
rfingers 7.12502
rthumb -27.7015 10.9087
lclavicle -1.61016e-014 1.63003e-014
lhumerus -42.6039 -6.35917 88.7759
lradius 32.9552
lwrist 46.6571
lhand 13.7114 -6.86731
lfingers 7.12502
lthumb 38.6374 18.7556
rfemur 0 0 0
rtibia 0
rfoot 0 0
rtoes 0
lfemur -16.7474 6.38144 -17.0596
ltibia 15.4639
lfoot -13.5 -6.29379
ltoes -16.6163
200
root -5.79118 16.3574 35.043 150.601 -83.4547 -136.979
lowerback -13.7138 2.44245 3.77802
upperback -6.50606 2.43739 -0.316532
thorax 1.00624 0.995199 -2.10882
lowerneck 15.8975 -8.75603 -30.8274
upperneck -3.68096 -19.0699 41.1179
head 4.17207 -11.8433 20.4804
rclavicle -9.98893e-015 1.35174e-014
rhumerus -12.4039 -10.4509 -65.3728
rradius 98.2585
rwrist 59.0675
rhand -55.5983 38.6387
rfingers 7.12502
rthumb -27.9522 10.6996
lclavicle -9.98893e-015 1.35174e-014
lhumerus -42.5574 -6.44923 88.8573
lradius 32.8203
lwrist 46.4001
lhand 13.3995 -6.97365
lfingers 7.12502
lthumb 38.343 18.7314
rfemur 0 0 0
rtibia 0
rfoot 0 0
rtoes 0
lfemur -16.7374 6.39173 -17.0525
ltibia 15.4551
lfoot -13.5012 -6.26827
ltoes -16.6509
201
root -5.79319 16.3572 35.0411 150.752 -83.4369 -137.125
lowerback -13.7311 2.46403 3.80299
upperback -6.50536 2.46218 -0.33145
thorax 1.01935 1.00702 -2.13419
lowerneck 15.9268 -8.75933 -30.8573
upperneck -3.71647 -19.0704 41.0934
head 4.15679 -11.8427 20.4728
rclavicle -1.28713e-014 -2.78299e-015
rhumerus -13.9538 -9.52949 -65.7218
rradius 97.9075
rwrist 62.2334
rhand -55.6811 38.2828
rfingers 7.12502
rthumb -28.0315 10.3566
lclavicle -1.28713e-014 -2.78299e-015
lhumerus -42.5065 -6.53952 88.9206
lradius 32.7093
lwrist 46.2981
lhand 13.1846 -7.01495
lfingers 7.12502
lthumb 38.1402 18.746
rfemur 0 0 0
rtibia 0
rfoot 0 0
rtoes 0
lfemur -16.725 6.39652 -17.0477
ltibia 15.4447
lfoot -13.5021 -6.24585
ltoes -16.6673
202
root -5.79524 16.3571 35.0394 150.958 -83.4317 -137.323
lowerback -13.7477 2.48756 3.81666
upperback -6.50616 2.49115 -0.352901
thorax 1.03064 1.02103 -2.15943
lowerneck 15.9704 -8.75827 -30.8973
upperneck -3.7721 -19.0692 41.0908
head 4.13795 -11.8451 20.4828
rclavicle 3.28989e-014 1.35174e-014
rhumerus -15.5352 -8.33755 -66.1913
rradius 97.4658
rwrist 64.201
rhand -55.6468 37.8088
rfingers 7.12502
rthumb -27.9986 9.87728
lclavicle 3.28989e-014 1.35174e-014
lhumerus -42.4467 -6.6321 88.9709
lradius 32.6141
lwrist 46.2387
lhand 13.0239 -7.04159
lfingers 7.12502
lthumb 37.9884 18.7608
rfemur 0 0 0
rtibia 0
rfoot 0 0
rtoes 0
lfemur -16.7124 6.3944 -17.0576
ltibia 15.4278
lfoot -13.4991 -6.22701
ltoes -16.6643
